<svg width="24" height="24" viewBox="0 0 24 24" fill="none" xmlns="http://www.w3.org/2000/svg">
<g clip-path="url(#clip0_11068_261)">
<path d="M19.3535 0.0249023C19.4953 0.0250689 19.6301 0.063385 19.748 0.131348C19.8701 0.193812 19.942 0.273154 19.9834 0.33252L19.9883 0.324707L23.751 6.84326C20.5131 12.4654 13.9995 23.7676 13.8457 24.0005L10.082 17.4819L15.0352 8.90381L16.3984 6.54248H3.7627L0 0.0249023C0.277433 0.00858265 12.7318 0.0179864 19.3535 0.0249023ZM1.72754 1.01709L4.34082 5.54346L13.6689 5.54248H16.5195L19.2861 1.11475L19.2334 1.02393C15.9274 1.0205 11.2236 1.01716 7.29492 1.01611C5.30684 1.01558 3.51705 1.01476 2.20801 1.01611C2.03972 1.01629 1.87927 1.01688 1.72754 1.01709Z" fill="black"/>
</g>
<defs>
<clipPath id="clip0_11068_261">
<rect width="24" height="24" fill="black"/>
</clipPath>
</defs>
</svg>
